<svg xmlns="http://www.w3.org/2000/svg" width="857.26" height="725.341" viewBox="0 0 857.26 725.341">
  <g id="Grupo_185" data-name="Grupo 185" transform="translate(-877 -133.921)">
    <g id="Grupo_183" data-name="Grupo 183" transform="translate(877 133.923)">
      <ellipse id="Elipse_35" data-name="Elipse 35" cx="36.391" cy="5.582" rx="36.391" ry="5.582" transform="translate(43.599 613.045)" fill="#96bf47" opacity="0.1"/>
      <ellipse id="Elipse_36" data-name="Elipse 36" cx="36.391" cy="5.582" rx="36.391" ry="5.582" transform="translate(568.471 620.64)" fill="#96bf47" opacity="0.1"/>
      <ellipse id="Elipse_37" data-name="Elipse 37" cx="36.391" cy="5.582" rx="36.391" ry="5.582" transform="translate(478.821 672.352)" fill="#96bf47" opacity="0.1"/>
      <ellipse id="Elipse_38" data-name="Elipse 38" cx="36.391" cy="5.582" rx="36.391" ry="5.582" transform="translate(161.517 571.398)" fill="#96bf47" opacity="0.1"/>
      <ellipse id="Elipse_39" data-name="Elipse 39" cx="208.738" cy="44.996" rx="208.738" ry="44.996" transform="translate(0 635.346)" fill="#96bf47" opacity="0.1"/>
      <path id="Caminho_649" data-name="Caminho 649" d="M943.17,537.468c-5.634,13.581-13.027,26.6-23.373,36.584-12.6,12.165-28.26,18.8-45.023,21.975a135.588,135.588,0,0,1-14.943,1.934,217.19,217.19,0,0,1-39.819-1.072,470.791,470.791,0,0,1-93.79-20.068q-7.515-2.426-14.943-5.107-11.207-4.017-22.212-8.623c-29.886-12.491-60.783-28.418-92.577-23.478-15.409,2.4-29.886,9.669-45.33,11.831a81.052,81.052,0,0,1-32.383-2.3,111.267,111.267,0,0,1-14.943-5.16,170.032,170.032,0,0,1-31.046-17.58c-23.294-16.279-44.2-36.461-68.721-50.561C377.028,460.291,347.1,452.9,316.6,447.387q-7.445-1.345-14.943-2.567c-14.108-2.329-28.251-4.483-42.192-7.032-13.431-2.479-27.1-5.511-38.791-12.965-8.342-5.318-15.356-12.684-21.791-20.446A243.913,243.913,0,0,1,168.545,357.6q-.659-1.319-1.292-2.637c-12.913-26.493-21.6-55.377-26.924-85.264-.158-.879-.308-1.758-.457-2.637a481.5,481.5,0,0,1-6.285-89.659l.053-2.637c.343-14.846,1.266-29.631,2.637-44.205.984-10.249,2.3-20.885,7.612-29.5s13.959-14.143,22.573-18.749c38.1-20.279,74.584-25.922,115.528-16.095,6.575,1.573,13.124,3.27,19.672,5.028,4.984,1.336,9.968,2.716,14.943,4.1,34.4,9.59,68.7,19.8,104.259,22.854q5.151.448,10.311.686,10.205.475,20.411.211a352.643,352.643,0,0,0,52.248-5.38q7.489-1.292,14.943-2.866c21.448-4.474,42.7-10.443,63.614-17.044q6.408-2.022,12.8-4.114c9.6-3.138,19.2-6.338,28.814-9.449,28.708-9.309,57.557-17.809,87.276-21.237q3.815-.431,7.63-.765c2.435-.211,4.878-.378,7.313-.5,46.1-2.461,92.735,8.658,133.609,31.416q7.612,4.228,14.943,9,10.17,6.619,19.716,14.24c13.044,10.416,25.254,22.274,34.554,36.523,9.063,13.88,14.943,29.464,18.327,45.849.185.879.36,1.758.519,2.637,4.966,26.449,3.419,54.815-2.154,81.317-.589,2.778-1.213,5.564-1.864,8.342-.2.879-.413,1.758-.624,2.637-6.012,25.06-13.695,50.051-11.691,75.674.255,3.226.659,6.426,1.187,9.59.149.879.3,1.758.466,2.637,3.92,20.9,12.833,40.733,18.178,61.434a189.269,189.269,0,0,1-8.219,118.429Z" transform="translate(-114.926 -37.41)" fill="#96bf47" opacity="0.1"/>
      <path id="Caminho_650" data-name="Caminho 650" d="M874.785,177.455h73.125c-.158-.879-.334-1.758-.519-2.637H874.785V78.207q-7.331-4.764-14.943-9V174.818H726.233V37.79c-2.435.123-4.878.29-7.313.5s-5.089.475-7.63.765V174.818H520.545l-.457-.5L624.013,60.284C614.4,63.4,604.8,66.6,595.2,69.733l-76.412,83.848V90.891q-7.463,1.565-14.943,2.866v62.717L451.6,99.136q-10.205.246-20.411-.211l68.7,75.392-.457.5H316.6V75.394c-4.975-1.389-9.959-2.769-14.943-4.1V174.818H133.633l-.053,2.637H301.672v89.659H139.865c.149.879.3,1.758.457,2.637h161.35v85.264H167.246q.633,1.318,1.292,2.637H301.672V444.9q7.489,1.231,14.943,2.567V357.652H503.844V544a111.28,111.28,0,0,0,14.943,5.16V357.652h192.5v214.1q7.436,2.69,14.943,5.107V357.652H859.842V598a135.588,135.588,0,0,0,14.943-1.934V357.652h58.436c-.167-.879-.316-1.758-.466-2.637H874.741V269.751h68.475c.211-.879.422-1.758.624-2.637H874.785Zm-14.943,0v89.659H726.233V177.455ZM711.289,267.114h-192.5V177.455h192.5ZM316.616,177.455H501.207l2.637,2.4v87.259H316.616Zm0,177.559V269.751H503.844v85.264Zm202.172,0V269.751h192.5v85.264Zm341.055,0H726.233V269.751H859.842Z" transform="translate(-114.936 -37.456)" fill="#96bf47" opacity="0.1"/>
      <path id="Caminho_651" data-name="Caminho 651" d="M879.747,125.669h-1.16a2.839,2.839,0,0,0,1.415-2.3h0c0-1.811-2.224-3.3-4.94-3.3H840.43c-2.716,0-4.949,1.486-4.949,3.3h0c0,1.82,2.233,3.305,4.949,3.305h1.16a2.848,2.848,0,0,0-1.415,2.3c0,1.547,1.617,2.857,3.78,3.208h-9.985c-2.725,0-4.949,1.486-4.949,3.3s2.224,3.305,4.949,3.305H868.61c2.725,0,4.949-1.486,4.949-3.305,0-1.547-1.617-2.848-3.789-3.2h9.977c2.716,0,4.94-1.486,4.94-3.305S882.464,125.669,879.747,125.669Z" transform="translate(-199.08 -47.412)" fill="#96bf47" opacity="0.1"/>
      <path id="Caminho_652" data-name="Caminho 652" d="M452.587,161.438h-1.16a2.883,2.883,0,0,0,1.415-2.3h0c0-1.82-2.224-3.305-4.949-3.305H413.252c-2.725,0-4.949,1.486-4.949,3.305h0c0,1.811,2.224,3.3,4.949,3.3H414.4a2.874,2.874,0,0,0-1.406,2.3c0,1.556,1.617,2.857,3.78,3.208h-9.968c-2.725,0-4.949,1.486-4.949,3.305s2.224,3.3,4.949,3.3H441.45c2.725,0,4.949-1.486,4.949-3.3,0-1.556-1.626-2.857-3.789-3.208h9.977c2.716,0,4.94-1.486,4.94-3.305S455.3,161.438,452.587,161.438Z" transform="translate(-147.396 -51.738)" fill="#96bf47" opacity="0.1"/>
      <path id="Caminho_653" data-name="Caminho 653" d="M940.208,314.5h-1.16a2.883,2.883,0,0,0,1.415-2.3h0c0-1.811-2.224-3.3-4.949-3.3H900.872c-2.725,0-4.949,1.486-4.949,3.3h0c0,1.811,2.224,3.3,4.949,3.3h1.151a2.866,2.866,0,0,0-1.406,2.3c0,1.547,1.617,2.857,3.78,3.208H894.42c-2.716,0-4.94,1.486-4.94,3.3s2.224,3.305,4.94,3.305h34.65c2.716,0,4.949-1.486,4.949-3.305,0-1.547-1.626-2.848-3.789-3.2h9.977c2.716,0,4.94-1.486,4.94-3.305S942.924,314.5,940.208,314.5Z" transform="translate(-206.395 -70.259)" fill="#96bf47" opacity="0.1"/>
      <path id="Caminho_654" data-name="Caminho 654" d="M227.208,601.47l405.02,45.515V659.9L226.18,612.836Z" transform="translate(-27.366 -72.774)" fill="#eaecf0"/>
      <path id="Caminho_655" data-name="Caminho 655" d="M225.593,629.785H217.91V438.97l5.529,1.679.062,5.722Z" transform="translate(-26.366 -53.113)" fill="#eaecf0"/>
      <path id="Caminho_656" data-name="Caminho 656" d="M229.738,626.939l-3.384,3.077L224.262,446.6l-.062-5.722h4l.053,6.065Z" transform="translate(-27.127 -53.344)" fill="#d3dae1"/>
      <path id="Caminho_657" data-name="Caminho 657" d="M92.83,641.574l112.1-39.054v3.692L92.83,644.958Z" transform="translate(-11.232 -72.901)" fill="#d3dae1"/>
      <path id="Caminho_658" data-name="Caminho 658" d="M94.834,654.38l-2-8.913,112.1-38.747V614.4Z" transform="translate(-11.232 -73.409)" fill="#eaecf0"/>
      <path id="Caminho_659" data-name="Caminho 659" d="M687.273,425.14V677.309h-5.845l-.3-233.93-.009-7.48Z" transform="translate(-82.411 -51.439)" fill="#eaecf0"/>
      <path id="Caminho_660" data-name="Caminho 660" d="M692.418,423.74V674.986l-4.3,2.154V424.971Z" transform="translate(-83.258 -51.27)" fill="#d3dae1"/>
      <path id="Caminho_661" data-name="Caminho 661" d="M586.13,699.288l83.734-46.8,5.916,3.437-89.65,48.89Z" transform="translate(-70.918 -78.947)" fill="#d3dae1"/>
      <path id="Caminho_662" data-name="Caminho 662" d="M588.749,715.75l-2.619-10.46,89.65-48.89v10.144Z" transform="translate(-70.918 -79.42)" fill="#eaecf0"/>
      <path id="Caminho_663" data-name="Caminho 663" d="M574.76,470.547l.308,266.321h8.307l-1.231-269.4Z" transform="translate(-69.542 -56.561)" fill="#eaecf0"/>
      <path id="Caminho_664" data-name="Caminho 664" d="M588.39,464.67V734.376l-4,2.154-1.231-269.4.492-.229Z" transform="translate(-70.558 -56.222)" fill="#d3dae1"/>
      <path id="Caminho_665" data-name="Caminho 665" d="M90.3,672.723H83.221L80.8,434.495l-.035-4.1h6.768l.053,4.685Z" transform="translate(-9.771 -52.075)" fill="#eaecf0"/>
      <path id="Caminho_666" data-name="Caminho 666" d="M96.143,670.877l-4.914,1.846L88.513,435.075l-.053-4.685h5.23l.044,5.142Z" transform="translate(-10.703 -52.075)" fill="#d3dae1"/>
      <path id="Caminho_667" data-name="Caminho 667" d="M583.72,466.9l4.738-2.233v10.46l-4.615,1.538Z" transform="translate(-70.626 -56.222)" opacity="0.1"/>
      <path id="Caminho_668" data-name="Caminho 668" d="M691.571,423.74v15.989l-4.3,1.442-6.144,2.039-.009-7.48,6.153-10.759Z" transform="translate(-82.411 -51.27)" opacity="0.1"/>
      <path id="Caminho_669" data-name="Caminho 669" d="M679.719,388.75v44.284l-95.944,31.987-.615-47.361Z" transform="translate(-70.558 -47.036)" fill="#d48a9b"/>
      <path id="Caminho_670" data-name="Caminho 670" d="M79.36,381.949,205.454,357.97l413.309,27.056L522.2,413.936Z" transform="translate(-9.602 -43.312)" fill="#efc6cd"/>
      <path id="Caminho_671" data-name="Caminho 671" d="M92.758,430.39l.044,5.142-5.221-.457-6.786-.58-.035-4.1Z" transform="translate(-9.771 -52.075)" opacity="0.1"/>
      <path id="Caminho_672" data-name="Caminho 672" d="M227.491,446.714l-3.991-.343-5.59-.475V438.97l5.529,1.679h4Z" transform="translate(-26.366 -53.113)" opacity="0.1"/>
      <path id="Caminho_673" data-name="Caminho 673" d="M79.36,385.25v41.217L522.819,464.6l-.615-47.361Z" transform="translate(-9.602 -46.613)" fill="#d48a9b"/>
      <path id="Caminho_674" data-name="Caminho 674" d="M471.4,438.107H413.48V417.09l57.918,4.079Z" transform="translate(-50.028 -50.465)" fill="#d48a9b"/>
      <path id="Caminho_675" data-name="Caminho 675" d="M471.4,438.107H413.48V417.09l57.918,4.079Z" transform="translate(-50.028 -50.465)" opacity="0.1"/>
      <path id="Caminho_676" data-name="Caminho 676" d="M324.96,411.85v33.209L547.3,461.971V426.609l-86.723-4.922-8.614,7.691-35.362-2.461-12.6-9.23Z" transform="translate(-39.318 -49.831)" opacity="0.1"/>
      <path id="Caminho_677" data-name="Caminho 677" d="M323.56,410.44v33.218L545.9,460.57V425.207l-86.723-4.922-8.605,7.691-35.371-2.461-12.6-9.23Z" transform="translate(-39.149 -49.661)" fill="#fff"/>
      <path id="Caminho_678" data-name="Caminho 678" d="M166.8,400.3l52.582,3.692-.615,16.71H184.428l-22.968-9.027Z" transform="translate(-19.536 -48.434)" fill="#d48a9b"/>
      <path id="Caminho_679" data-name="Caminho 679" d="M166.8,400.3l52.582,3.692-.615,16.71H184.428l-22.968-9.027Z" transform="translate(-19.536 -48.434)" opacity="0.1"/>
      <path id="Caminho_680" data-name="Caminho 680" d="M87.76,395.05v29.833L289.5,440.873V409.193l-77.81-4.606-8.3,6.144-31.372-1.837-12.913-8Z" transform="translate(-10.618 -47.799)" opacity="0.1"/>
      <path id="Caminho_681" data-name="Caminho 681" d="M86.36,393.65v29.833L288.1,439.473V407.8l-77.81-4.615-8.3,6.153-31.372-1.846-12.913-8Z" transform="translate(-10.449 -47.629)" fill="#fff"/>
      <path id="Caminho_682" data-name="Caminho 682" d="M96.65,649.415l1.38-.475-.694,9.81L96.65,659Z" transform="translate(-11.694 -78.518)" opacity="0.1"/>
      <path id="Caminho_683" data-name="Caminho 683" d="M572.1,393.78l28.278,1.855-46.86,14.029-23.865-1.732Z" transform="translate(-64.084 -47.645)" opacity="0.1"/>
      <path id="Caminho_684" data-name="Caminho 684" d="M572.1,392.38l28.278,1.855-46.86,14.02-23.865-1.723Z" transform="translate(-64.084 -47.476)" fill="#fff"/>
      <path id="Caminho_685" data-name="Caminho 685" d="M686.46,433.381c1.116-.475,2.3.422,3.516.65.677.132,1.38,0,2.057.132,1.389.185,2.769,1.116,4.087.642" transform="translate(-181.831 -85.304)" fill="#d3dae1"/>
      <path id="Caminho_686" data-name="Caminho 686" d="M684.8,434.351c1.108-.483,2.3.413,3.516.642.677.132,1.38,0,2.066.132,1.389.185,2.76,1.116,4.079.642" transform="translate(-181.63 -85.42)" fill="#d3dae1"/>
      <path id="Caminho_687" data-name="Caminho 687" d="M681,436.271c1.116-.475,2.312.422,3.516.65.677.132,1.38,0,2.066.132,1.389.185,2.76,1.116,4.079.642" transform="translate(-181.17 -85.653)" fill="#d3dae1"/>
      <circle id="Elipse_40" data-name="Elipse 40" cx="8.254" cy="8.254" r="8.254" transform="translate(35.696 639.802)" fill="#535461"/>
      <circle id="Elipse_41" data-name="Elipse 41" cx="8.254" cy="8.254" r="8.254" transform="translate(50.464 672.088)" fill="#535461"/>
      <circle id="Elipse_42" data-name="Elipse 42" cx="8.254" cy="8.254" r="8.254" transform="translate(197.724 677.934)" fill="#535461"/>
      <circle id="Elipse_43" data-name="Elipse 43" cx="8.254" cy="8.254" r="8.254" transform="translate(230.625 635.803)" fill="#535461"/>
      <rect id="Retângulo_189" data-name="Retângulo 189" width="10.337" height="64.581" transform="translate(135.411 502.29)" fill="#535461"/>
      <rect id="Retângulo_190" data-name="Retângulo 190" width="10.337" height="10.46" transform="translate(135.411 556.411)" opacity="0.1"/>
      <rect id="Retângulo_191" data-name="Retângulo 191" width="14.328" height="71.657" transform="translate(133.416 558.872)" fill="#3a3768"/>
      <path id="Caminho_688" data-name="Caminho 688" d="M369.188,753.671,275.38,749.83v15.093H384.245A16.631,16.631,0,0,0,369.188,753.671Z" transform="translate(-132.093 -123.608)" fill="#3a3768"/>
      <path id="Caminho_689" data-name="Caminho 689" d="M166.587,753.671l93.808-3.841v15.093H151.53A16.622,16.622,0,0,1,166.587,753.671Z" transform="translate(-117.108 -123.608)" fill="#3a3768"/>
      <path id="Caminho_690" data-name="Caminho 690" d="M252.389,751.37,177.5,788.288A18.987,18.987,0,0,0,166.95,805.3v1.125l87.461-38.131,12.306-.923,72.729,46.438h0a18.969,18.969,0,0,0-7.832-18.02l-64.9-45.946Z" transform="translate(-118.974 -123.61)" fill="#3a3768"/>
      <path id="Caminho_691" data-name="Caminho 691" d="M276.757,608.83v6.962q-2.716.114-5.538.114c-1.626,0-3.226,0-4.8-.088V608.83Z" transform="translate(-131.009 -106.548)" opacity="0.1"/>
      <ellipse id="Elipse_44" data-name="Elipse 44" cx="38.14" cy="11.155" rx="38.14" ry="11.155" transform="translate(102.07 484.587)" fill="#3a3768"/>
      <path id="Caminho_692" data-name="Caminho 692" d="M304.39,599.855a4.553,4.553,0,0,1-1.626,3.226c-4.711,4.588-19.277,7.911-36.505,7.911-16.851,0-31.134-3.2-36.189-7.621a4.835,4.835,0,0,1-1.96-3.516c0-6.153,17.079-11.155,38.149-11.155S304.39,593.693,304.39,599.855Z" transform="translate(-126.374 -104.113)" opacity="0.1"/>
      <path id="Caminho_693" data-name="Caminho 693" d="M304.76,599.857a4.553,4.553,0,0,1-1.626,3.226c-4.852-1.213-8.21-2.215-8.21-2.215s-33.622,1.881-64.484,2.523a4.834,4.834,0,0,1-1.96-3.516c0-6.153,17.079-11.155,38.149-11.155S304.76,593.7,304.76,599.857Z" transform="translate(-126.419 -104.115)" opacity="0.1"/>
      <path id="Caminho_694" data-name="Caminho 694" d="M162.322,432.7s12.614,34.448,12,55.052S163.86,547.1,163.86,547.1s-9.836,31.372,15.383,34.141,107.634-1.846,107.634-1.846,30.765,9.221,40.593,5.221c3.824-1.547,7.138-4.958,9.757-8.553a17.888,17.888,0,0,0-4.641-25.535,53.286,53.286,0,0,0-14.829-6.364,11.91,11.91,0,0,0-3.384-.413l-107.459,2.118s-11.99-1.846-9.836-13.836,5.837-48.9,5.837-48.9.615-44.9-20.912-57.5S162.322,432.7,162.322,432.7Z" transform="translate(-118.371 -83.872)" fill="#3a3768"/>
      <path id="Caminho_695" data-name="Caminho 695" d="M162.322,432.575s12.614,34.44,12,55.043-10.46,59.359-10.46,59.359-9.836,31.363,15.383,34.132,107.634-1.855,107.634-1.855,30.765,9.23,40.593,5.274c3.824-1.556,7.138-4.966,9.757-8.553a17.9,17.9,0,0,0-4.641-25.544,53.813,53.813,0,0,0-14.829-6.364,11.6,11.6,0,0,0-3.384-.4l-107.459,2.083s-11.99-1.846-9.836-13.844,5.837-48.89,5.837-48.89.615-44.9-20.912-57.513S162.322,432.575,162.322,432.575Z" transform="translate(-118.371 -83.856)" opacity="0.1"/>
      <path id="Caminho_696" data-name="Caminho 696" d="M165.122,431.3s12.614,34.448,12,55.052S166.66,545.7,166.66,545.7s-9.836,31.372,15.374,34.141,107.634-1.846,107.634-1.846,30.765,9.221,40.6,5.274c3.824-1.556,7.138-4.966,9.757-8.562a17.888,17.888,0,0,0-4.641-25.535,53.282,53.282,0,0,0-14.829-6.408,11.908,11.908,0,0,0-3.384-.413l-107.459,2.118s-11.99-1.846-9.836-13.836,5.837-48.9,5.837-48.9.615-44.9-20.912-57.5S165.122,431.3,165.122,431.3Z" transform="translate(-118.71 -83.703)" fill="#3a3768"/>
      <path id="Caminho_697" data-name="Caminho 697" d="M413.343,765.266v11.119s53.118.958,64.818.958,27.8-5.749,28.761-10.355-13.422-8.438-18.793-8.623-5.555-2.3-12.464-5.951c-3.894-2.057-9.81-8.025-14.222-12.833-3.4-3.709-5.907-6.724-5.907-6.724s-28.577-.571-36.822,4.026c-1.9,1.064-3.208,3.138-4.1,5.714C411.638,751.184,413.343,765.266,413.343,765.266Z" transform="translate(-148.727 -121.552)" fill="#434175"/>
      <path id="Caminho_698" data-name="Caminho 698" d="M414.85,742.6c5.995-2.083,41.067-2.892,46.833-3.015-3.4-3.709-5.907-6.724-5.907-6.724s-28.577-.571-36.822,4.026C417.056,737.946,415.747,740.012,414.85,742.6Z" transform="translate(-148.968 -121.552)" opacity="0.1"/>
      <path id="Caminho_699" data-name="Caminho 699" d="M239.54,541.141l3.094,1.872,1.16.7,4.509,2.707c24.1,14.53,89.843,53.9,93.447,53.619.941-.079,3.771-.5,7.682-1.143,1.037-.167,2.154-.343,3.323-.545,15.057-2.505,40.083-7.032,42.878-8.28,3.832-1.758,3.068,5.942,1.529,12.464s-2.681,37.8-.958,41.806.958,10.548.958,10.548l-2.294,35.09,1.538,7.454s-5.177,4.219-3.068,6.707.193,13.238.193,13.238c6.153-2.3,47.748-3.068,47.748-3.068s-1.758-15.347-.193-18.987.387-25.315.387-25.315.958-16.49-.765-20.323.571-28.383.571-28.383,1.538-14.574,1.916-44.3-16.877-30.677-16.877-30.677-2.294-.185-5.793-.519c-6.83-.659-18.222-1.907-25.834-3.516a44.533,44.533,0,0,1-4.615-1.231c-9.4-3.2-41.032-3.323-46.209-1.02a13.832,13.832,0,0,1-10.337,0h0l-4.026-6.522L291.041,536.8l-4.07.352L249.1,540.376l-2.637.229Z" transform="translate(-127.757 -97.436)" fill="#565387"/>
      <path id="Caminho_700" data-name="Caminho 700" d="M414.151,571.759c11.172,5.45,21.835-13.862,26.8-24.753-6.83-.659-18.222-1.907-25.834-3.516C410.117,551.849,403.436,566.546,414.151,571.759Z" transform="translate(-148.19 -98.643)" opacity="0.1"/>
      <path id="Caminho_701" data-name="Caminho 701" d="M376.76,424.63a11.6,11.6,0,0,0,1.354,3.745c4.131,8.368,16.095,25.6,16.095,25.6a27.724,27.724,0,0,1,8.79,8.79c3.261,5.564,4.219,18.6,4.219,18.6s7.287,28.954,10.733,32.989c1.758,2.013.958,3.208-.237,3.9a17.079,17.079,0,0,0-6.048,5.67c-5.028,8.078-13.053,24.12-1.758,29.622,15.339,7.48,29.728-31.723,29.728-31.723s-2.883-27.8-3.648-32.594-5.371-24.551-5.371-24.551-3.261-8.438-5.177-14.381-7.665-12.851-7.665-12.851-10.363-20.709-13.238-23.777c-1.336-1.424-3.208-3.217-4.826-4.729-1.872-1.758-3.419-3.129-3.419-3.129S376.566,420.041,376.76,424.63Z" transform="translate(-144.359 -81.984)" fill="#ee8e9e"/>
      <path id="Caminho_702" data-name="Caminho 702" d="M228.85,761.274l34.9,15.532s45.225.958,53.136-1.151,6.153-10.926-4.219-12.658-12.842-6.32-16.3-8.43c-2.329-1.424-10.6-10.627-15.725-16.455-2.47-2.8-4.219-4.835-4.219-4.835s-6.716-17.835-25.315-13.809a19.1,19.1,0,0,0-9.063,4.791c-10.029,9.282-10.9,27.645-10.9,27.645Z" transform="translate(-126.463 -119.863)" fill="#434175"/>
      <path id="Caminho_703" data-name="Caminho 703" d="M244.38,543.6l4.509,2.707c24.1,14.53,89.843,53.9,93.447,53.619.941-.079,3.771-.5,7.682-1.143,1.037-.167,2.154-.343,3.323-.545l.132-.22a43.952,43.952,0,0,0,4.395-10.75c4.026-15.339-15.919-27.038-15.919-27.038l-4.219-3.279c-4.791-8.069-39.309-15.7-39.309-15.7l-4.448-3.033-2.382-1.6-.624-.413-5.4-3.63L258.532,534.5l-8.034,5.16-.879.545-2.936,1.925Z" transform="translate(-128.342 -97.323)" opacity="0.1"/>
      <path id="Caminho_704" data-name="Caminho 704" d="M243.86,724.263c7.34,25.395,38,17.1,38,17.1l.58-3.217c-2.47-2.8-4.219-4.835-4.219-4.835S271.5,715.473,252.9,719.5a19.1,19.1,0,0,0-9.045,4.764Z" transform="translate(-128.279 -119.867)" opacity="0.1"/>
      <path id="Caminho_705" data-name="Caminho 705" d="M233.612,586.578c11.313,0,40.434,13.616,40.434,13.616,5.942,4.606,13.994,3.068,13.994,3.068s-14.161,14.381-13.765,20.331-8.061,15.725-8.061,15.725l-26.08,51.58c1.925,36.628,39.5,26.467,39.5,26.467l1.538-8.632c2.3-1.151,5.758-12.658,5.758-12.658s0-4.6,2.294-5.942,7.094-15.154,7.094-15.154,10.355-17.448,9.775-19.742,7.48-13.994,7.48-13.994,13.616-13.422,13.036-15.822,10.952-14.679,10.952-14.679a38.589,38.589,0,0,0,10.179-11.884,44.064,44.064,0,0,0,4.4-10.741c3.244-12.359-9.063-22.353-13.976-25.772-1.187-.826-1.943-1.266-1.943-1.266L332,557.8c-2.18-3.674-10.5-7.261-18.943-10.065-6.083-2.03-12.218-3.665-16.147-4.641-2.637-.642-4.219-1-4.219-1l-4.448-2.989-1.565-1.055-1.433-.958-5.406-3.63-12.025.879L252.8,535.4l-8.025,5.169-3.832,2.461L225.956,552.7s-.4,3.683-.519,8.641v1.169C225.235,572.47,226.316,586.578,233.612,586.578Z" transform="translate(-126.048 -97.429)" fill="#565387"/>
      <path id="Caminho_706" data-name="Caminho 706" d="M300.4,346.988l4.043,14.381s7.1,24.744,7.867,26.467,19.338,19.18,20.138,19.558,10.891,6.153,10.891,6.153.8-31.644,0-40.839a26.265,26.265,0,0,1,.5-6.03c1.222-7.217,4.316-17.791,6.883-25.94,2.145-6.83,3.929-11.946,3.929-11.946s-44.873-1.925-43.335,2.488c.58,1.67.387,4.457-.167,7.252-.932,4.606-2.857,9.212-4.052,8.86a15.769,15.769,0,0,0-3.56-.4C301.9,346.926,300.4,346.988,300.4,346.988Z" transform="translate(-135.12 -72.615)" fill="#ee8e9e"/>
      <path id="Caminho_707" data-name="Caminho 707" d="M312.65,338.512a33.191,33.191,0,0,0,39.555,2.206c2.145-6.83,3.929-11.946,3.929-11.946s-44.873-1.925-43.335,2.488C313.4,332.93,313.2,335.717,312.65,338.512Z" transform="translate(-136.603 -72.613)" opacity="0.1"/>
      <path id="Caminho_708" data-name="Caminho 708" d="M299.09,305.064a33.024,33.024,0,1,0,9.674-23.5A33.183,33.183,0,0,0,299.09,305.064Z" transform="translate(-134.962 -65.781)" fill="#ee8e9e"/>
      <path id="Caminho_709" data-name="Caminho 709" d="M300.4,349.547l4.043,14.381s7.1,24.744,7.867,26.467,19.338,19.18,20.138,19.558S343.34,416.1,343.34,416.1s.8-31.644,0-40.839a26.265,26.265,0,0,1,.5-6.03L341.2,379.864l.193,21.29,1.529,1.151-3.446,5.177v-3.841s-12.306-11.884-14.2-16.877-8.79-14.011-8.79-14.011-7.911-13.185-8.052-15.514c-.149-1.758-3.454-5.942-4.9-7.683C301.9,349.485,300.4,349.547,300.4,349.547Z" transform="translate(-135.12 -75.174)" opacity="0.1"/>
      <path id="Caminho_710" data-name="Caminho 710" d="M376.76,424.633a11.6,11.6,0,0,0,1.354,3.745c4.193-.422,18.459-3.094,21.624-19.408-1.872-1.758-3.419-3.129-3.419-3.129S376.566,420.045,376.76,424.633Z" transform="translate(-144.359 -81.988)" opacity="0.1"/>
      <path id="Caminho_711" data-name="Caminho 711" d="M225.39,562.444c3.868-2.742,7.551-6.478,9.748-7.507,3.261-1.538,8.245-6.522,8.245-6.522s1.266-.879,3.208-2c3.56-2.083,9.4-5.107,13.862-5.476,4-.334,17.308-1.187,27.768-1.837l13.651-.879s12.464-4.4,17.835-1.538a56.573,56.573,0,0,0,12.078,4.4s0-.422,0-1.143h0l-4.026-6.522-42.535,3.63-5.406-3.63-27.038,1.916-8.025,5.169-6.927.589,3.094,1.872-14.987,9.669S225.478,556.915,225.39,562.444Z" transform="translate(-126.045 -97.423)" opacity="0.1"/>
      <path id="Caminho_712" data-name="Caminho 712" d="M218.662,541.744a17.465,17.465,0,0,0,5.617-2.865h0c3.859-2.734,7.533-6.461,9.722-7.489,3.261-1.538,8.245-6.522,8.245-6.522s10.17-6.909,17.07-7.48c1.881-.158,5.819-.431,10.548-.738l15.655-1,8.122-.51,7.094-.431s12.464-4.4,17.835-1.538a56.575,56.575,0,0,0,12.078,4.4s.193-13.422,1.758-18.987,3.639-15.725,3.639-15.725,1.758-13.994,3.454-20.323,8.438-41.612,11.893-43.95,5.362,1.758,5.362,1.758,23.012-.387,23.4-25.693c0,0-10.741-10.741-11.506-13.422s-10.926-12.658-10.926-12.658-5.757-10.741-12.306-10.935a51.632,51.632,0,0,0-9.23.29l-5.538,22.529.193,21.29,1.538,1.151-3.454,5.177v-3.771s-12.306-11.893-14.187-16.877-8.79-14.02-8.79-14.02-7.858-13.185-8.052-15.514-5.564-8.465-5.564-8.465a13.624,13.624,0,0,0-3.261,0,3.516,3.516,0,0,1-1.424-.2,19.259,19.259,0,0,0-9.581-.545c-6.628,1.38-16.7,3.894-19.479,6.909-4.219,4.606-10.355,9.019-17.264,28.19l37.2,13.422-3.182,6.056-29.6,56.256s-.984,1.6-2.312,3.683h0c-1.758,2.707-4.035,6.25-5.555,8.192-2.681,3.454-1.916,14.381-1.916,14.381s-.571,5.177-2.488,7.1-1.547,9-1.547,9l-4.984,18.6s-4.606,4.219-4.606,6.153-3.639,7.287-3.639,7.287S213.124,543.08,218.662,541.744Z" transform="translate(-124.934 -75.026)" fill="#dfe5ee"/>
      <path id="Caminho_713" data-name="Caminho 713" d="M247.16,470.747h0a29.005,29.005,0,0,1,.589,3.208s15.145,35.477,17.061,37.586c.589.65,2.822,3.841,5.617,7.911l3.208,4.738c5.793,8.605,12.306,18.38,12.306,18.38l14.187,12.464s30.871,2.47,40.68-7.551c-1.187-.826-1.943-1.266-1.943-1.266l-4.219-3.279c-2.18-3.674-10.5-7.261-18.943-10.065-7.77.053-14.126.686-14.126.686l-2.022-5.327-2.11-5.555-10.759-28.2s-6.918-35.661-9.221-37.393-1.758-7.094-1.758-7.094,4.219-15.145,2.681-17.255,2.5-17.65,2.5-17.65a15.918,15.918,0,0,0-1.846-4.3l-29.6,56.256S248.487,468.637,247.16,470.747Z" transform="translate(-128.679 -82.587)" opacity="0.1"/>
      <path id="Caminho_714" data-name="Caminho 714" d="M280.539,412.109s-4.026,15.532-2.488,17.642-2.69,17.255-2.69,17.255-.571,5.371,1.758,7.094,9.221,37.393,9.221,37.393L301.2,530.617s46.491-4.606,41.7,9.968-43.15,11.506-43.15,11.506l-14.187-12.464s-19.18-28.954-21.1-31.064-17.07-37.586-17.07-37.586-.765-7.094-4.026-10.741-.765-9.8-.765-9.8-4.026-46.385.193-51.94S276.144,395.426,280.539,412.109Z" transform="translate(-127.917 -80.777)" fill="#ee8e9e"/>
      <path id="Caminho_715" data-name="Caminho 715" d="M440.269,584.07s-12.086,4.035-15.321,9.783S440.269,584.07,440.269,584.07Z" transform="translate(-150.144 -103.553)" opacity="0.1"/>
      <path id="Caminho_716" data-name="Caminho 716" d="M433.3,569.68c-.378.571-16.543,16.789-15.532,20.709S433.3,569.68,433.3,569.68Z" transform="translate(-149.315 -101.811)" opacity="0.1"/>
      <path id="Caminho_717" data-name="Caminho 717" d="M331.736,582.77s-18.028,8.5-19.567,12.2S331.736,582.77,331.736,582.77Z" transform="translate(-136.535 -103.395)" opacity="0.1"/>
      <path id="Caminho_718" data-name="Caminho 718" d="M330.567,595.2s-16.27,6.9-18.459,8.632S330.567,595.2,330.567,595.2Z" transform="translate(-136.517 -104.899)" opacity="0.1"/>
      <path id="Caminho_719" data-name="Caminho 719" d="M322.99,611.852s-7.208,5.371-11.181,1.152S322.99,611.852,322.99,611.852Z" transform="translate(-136.42 -106.784)" opacity="0.1"/>
      <path id="Caminho_720" data-name="Caminho 720" d="M351.056,452.74c-.387.58-24.357,43.722-30.686,46.983S351.056,452.74,351.056,452.74Z" transform="translate(-137.449 -87.662)" opacity="0.1"/>
      <path id="Caminho_721" data-name="Caminho 721" d="M350.274,471.29c0,.958-23.4,50.982-27.249,51.58S350.274,471.29,350.274,471.29Z" transform="translate(-137.818 -89.907)" opacity="0.1"/>
      <path id="Caminho_722" data-name="Caminho 722" d="M250.595,507.94s-11.286,24.129-15.681,25.544S250.595,507.94,250.595,507.94Z" transform="translate(-127.121 -94.341)" opacity="0.1"/>
      <path id="Caminho_723" data-name="Caminho 723" d="M249.742,495.72s-3.894,8.438-6.259,8.438S249.742,495.72,249.742,495.72Z" transform="translate(-128.184 -92.863)" opacity="0.1"/>
      <path id="Caminho_724" data-name="Caminho 724" d="M299.09,305.062a33.024,33.024,0,0,0,2.1,11.612,31.328,31.328,0,0,1,32.725-32.189c1.609.07,3.516.448,4.167,1.907a8.017,8.017,0,0,1,.4,2.426c.483,3.727,4.263,6.056,7.814,7.269s7.507,1.987,10.082,4.72c2.356,2.505,3.024,6.1,4.184,9.344a13.414,13.414,0,0,0,3.235,5.274,33.183,33.183,0,1,0-64.7-10.364Z" transform="translate(-134.962 -65.779)" opacity="0.1"/>
      <path id="Caminho_725" data-name="Caminho 725" d="M360.034,271.02c-2.725-3.7-7.559-4.984-11.761-6.847a37.314,37.314,0,0,1-20.912-25.412,13.1,13.1,0,0,0,1.283,16.332c-7.639-.519-16.077-1.4-21.254-7.032-1.178,4.061,2.347,8.676.422,12.438-1.653,3.235-6.153,3.516-9.063,5.714-3.1,2.3-4.131,6.478-4.325,10.337s.211,7.814-.932,11.506c-.879,2.8-2.637,5.38-2.813,8.307a14.239,14.239,0,0,0,1.406,6.3,56.907,56.907,0,0,0,8.72,14.486,31.381,31.381,0,0,1,32.093-37.8c1.609.07,3.516.457,4.166,1.916a7.91,7.91,0,0,1,.4,2.426c.483,3.718,4.263,6.048,7.814,7.261s7.507,2,10.082,4.72c2.356,2.505,3.024,6.1,4.184,9.344s3.4,6.636,6.821,7.032c.782-4.817,1.573-9.669,1.09-14.556-.527-5.23-4.043-8.192-5.274-12.746C360.842,279.977,363.374,275.555,360.034,271.02Z" transform="translate(-133.944 -61.772)" fill="#603556"/>
      <path id="Caminho_726" data-name="Caminho 726" d="M256.491,380.826l-12.078,7.287S240.959,399.8,238.26,401.3c0,0,24.164-13.422,42.377,17.448,0,0-.571-4.026,1.916-5.942s1.916-10.161,1.916-10.161a34.758,34.758,0,0,0,1.758-4.035C287.9,394.433,278.888,370.278,256.491,380.826Z" transform="translate(-127.602 -78.642)" opacity="0.1"/>
      <path id="Caminho_727" data-name="Caminho 727" d="M256.009,379.946l-12.086,7.287s-3.454,11.7-6.153,13.238c0,0,24.164-13.431,42.377,17.448,0,0-.571-4.026,1.925-5.942s1.916-10.17,1.916-10.17a32.9,32.9,0,0,0,1.758-4.026C287.451,393.562,278.406,369.4,256.009,379.946Z" transform="translate(-127.543 -78.535)" fill="#dfe5ee"/>
      <g id="Grupo_182" data-name="Grupo 182" transform="translate(156.735 180.952)" opacity="0.1">
        <path id="Caminho_728" data-name="Caminho 728" d="M310.658,259.009c-.044-3.129-1.907-6.575-1-9.669l.158.167C310.034,252.707,311.809,256.073,310.658,259.009Z" transform="translate(-292.945 -244.004)"/>
        <path id="Caminho_729" data-name="Caminho 729" d="M295.289,278.9c-.185,3.516.132,7.032-.659,10.451.29-2.681.132-5.441.272-8.148a22.575,22.575,0,0,1,.5-3.815C295.351,277.926,295.307,278.4,295.289,278.9Z" transform="translate(-291.157 -247.398)"/>
        <path id="Caminho_730" data-name="Caminho 730" d="M290.68,303.987a9.538,9.538,0,0,1,.378-2.057,14.653,14.653,0,0,0,1.415,6.056,56.764,56.764,0,0,0,7.823,13.361,30.417,30.417,0,0,0,.51,3.428,56.9,56.9,0,0,1-8.72-14.486A14.239,14.239,0,0,1,290.68,303.987Z" transform="translate(-290.679 -250.367)"/>
        <path id="Caminho_731" data-name="Caminho 731" d="M333.768,253.335c-.738-.044-1.494-.1-2.241-.158a13.51,13.51,0,0,1-1.275-9.906A12.956,12.956,0,0,0,333.768,253.335Z" transform="translate(-295.416 -243.27)"/>
        <path id="Caminho_732" data-name="Caminho 732" d="M309.365,293.327a31.89,31.89,0,0,1,25.307-11.04c1.609.079,3.516.457,4.175,1.916a8.244,8.244,0,0,1,.4,2.426c.483,3.718,4.254,6.056,7.814,7.261s7.5,2,10.073,4.729c2.365,2.505,3.033,6.1,4.193,9.335s3.393,6.628,6.8,7.032l-.369,2.3c-3.419-.369-5.661-3.762-6.821-7.032s-1.828-6.839-4.184-9.344c-2.575-2.725-6.531-3.516-10.082-4.72s-7.331-3.516-7.814-7.261a7.911,7.911,0,0,0-.4-2.426c-.686-1.459-2.558-1.846-4.166-1.916a31.222,31.222,0,0,0-32.084,25.131,31.75,31.75,0,0,1,7.155-16.393Z" transform="translate(-292.074 -247.988)"/>
      </g>
      <path id="Caminho_733" data-name="Caminho 733" d="M427.27,339.65v34.4l-32.91-2.637V339.65Z" transform="translate(-47.715 -41.096)" fill="#3a3768"/>
      <path id="Caminho_734" data-name="Caminho 734" d="M427.27,375.217v2.813l-32.91-2.637V372.58Z" transform="translate(-47.715 -45.08)" opacity="0.1"/>
      <path id="Caminho_735" data-name="Caminho 735" d="M548.563,417.947,497.37,415.31h0a5.01,5.01,0,0,1,5.01-5.01l41.173,2.637a5.01,5.01,0,0,1,5.01,5.01Z" transform="translate(-158.952 -82.527)" fill="#3a3768"/>
      <path id="Caminho_736" data-name="Caminho 736" d="M601.624,371.2,424.548,365.93a5.379,5.379,0,0,1-5.388-5.388V255.94a5.38,5.38,0,0,1,5.388-5.38l177.076,5.274a5.388,5.388,0,0,1,5.388,5.38v104.6A5.388,5.388,0,0,1,601.624,371.2Z" transform="translate(-149.49 -63.2)" fill="#3a3768"/>
      <path id="Caminho_737" data-name="Caminho 737" d="M490.836,328,311.29,322.727V228.48l179.546,5.274Z" transform="translate(-37.664 -27.645)" fill="#96bf47"/>
      <ellipse id="Elipse_45" data-name="Elipse 45" cx="1.582" cy="1.565" rx="1.582" ry="1.565" transform="translate(361.817 194.401)" fill="#fff"/>
      <path id="Caminho_738" data-name="Caminho 738" d="M427.245,346.987l-32.8-.527v1.116h32.8Z" transform="translate(-47.725 -41.92)" opacity="0.1"/>
      <path id="Caminho_739" data-name="Caminho 739" d="M361.868,383.88l44.926,2.945-9.572,13.756-49.391-5.274Z" transform="translate(-42.085 -46.447)" opacity="0.1"/>
      <path id="Caminho_740" data-name="Caminho 740" d="M360.868,382.88l44.926,2.945-9.572,13.756-49.391-5.274Z" transform="translate(-41.964 -46.326)" fill="#3a3768"/>
      <path id="Caminho_741" data-name="Caminho 741" d="M363.375,384.04l39.177,2.391-8.342,11.207-43.08-4.3Z" transform="translate(-42.484 -46.467)" fill="#d5e1f4"/>
      <path id="Caminho_742" data-name="Caminho 742" d="M1029.505,599.29s6.267,8.2-2.9,20.586-16.7,22.854-13.668,30.554c0,0,13.836-23,25.087-23.32S1041.917,613.1,1029.505,599.29Z" transform="translate(-221.25 -105.394)" fill="#96bf47"/>
      <path id="Caminho_743" data-name="Caminho 743" d="M1029.553,599.29a10.3,10.3,0,0,1,1.275,2.567c10.988,12.913,16.842,24.955,6.285,25.254-9.836.281-21.632,17.861-24.463,22.309a10.458,10.458,0,0,0,.334,1.011s13.836-23,25.087-23.32S1041.965,613.1,1029.553,599.29Z" transform="translate(-221.298 -105.394)" opacity="0.1"/>
      <path id="Caminho_744" data-name="Caminho 744" d="M1044.94,610.924c0,2.883-.325,5.274-.721,5.274s-.729-2.347-.729-5.274.4-1.529.809-1.529S1044.94,608.04,1044.94,610.924Z" transform="translate(-225.029 -106.576)" fill="#ffd037"/>
      <path id="Caminho_745" data-name="Caminho 745" d="M1049.009,614.828c-2.531,1.38-4.747,2.215-4.931,1.864s1.705-1.758,4.237-3.138,1.538-.369,1.758,0S1051.55,613.448,1049.009,614.828Z" transform="translate(-225.099 -107.035)" fill="#ffd037"/>
      <path id="Caminho_746" data-name="Caminho 746" d="M992.252,599.29s-6.276,8.2,2.892,20.586,16.7,22.854,13.669,30.554c0,0-13.827-23-25.087-23.32S979.867,613.1,992.252,599.29Z" transform="translate(-217.126 -105.394)" fill="#96bf47"/>
      <path id="Caminho_747" data-name="Caminho 747" d="M992.252,599.29a10.1,10.1,0,0,0-1.283,2.567c-10.979,12.913-16.833,24.955-6.276,25.254,9.836.281,21.632,17.861,24.454,22.309a8.521,8.521,0,0,1-.334,1.011s-13.827-23-25.087-23.32S979.867,613.1,992.252,599.29Z" transform="translate(-217.126 -105.394)" opacity="0.1"/>
      <path id="Caminho_748" data-name="Caminho 748" d="M980.93,610.924c0,2.883.316,5.274.721,5.274s.721-2.347.721-5.274-.4-1.529-.8-1.529S980.93,608.04,980.93,610.924Z" transform="translate(-217.46 -106.576)" fill="#ffd037"/>
      <path id="Caminho_749" data-name="Caminho 749" d="M976.154,614.828c2.54,1.38,4.747,2.215,4.94,1.864s-1.758-1.758-4.246-3.138-1.53-.369-1.758,0S973.623,613.448,976.154,614.828Z" transform="translate(-216.693 -107.035)" fill="#ffd037"/>
      <ellipse id="Elipse_47" data-name="Elipse 47" cx="65.574" cy="10.065" rx="65.574" ry="10.065" transform="translate(726.112 587.651)" fill="#96bf47" opacity="0.1"/>
      <path id="Caminho_750" data-name="Caminho 750" d="M1042.137,644.362l-.316,2.567-.44,3.613-.185,1.512-.439,3.613-.185,1.512-.44,3.613-5.019,41.138c-.448,3.674-6.452,6.531-13.695,6.531H995.347c-7.243,0-13.229-2.857-13.677-6.531l-5.028-41.138-.44-3.613-.185-1.512-.448-3.613-.185-1.512-.44-3.613-.308-2.567c-.255-2.074,2.989-3.832,7.085-3.832h53.329C1039.122,640.53,1042.392,642.288,1042.137,644.362Z" transform="translate(-216.697 -110.384)" fill="#65617d"/>
      <path id="Caminho_751" data-name="Caminho 751" d="M929.5,610.4l-.44,3.613H863.07l-.44-3.613Z" transform="translate(-104.373 -73.855)" fill="#9d9cb5"/>
      <path id="Caminho_752" data-name="Caminho 752" d="M928.957,616.23l-.439,3.622H863.778l-.448-3.622Z" transform="translate(-104.457 -74.56)" fill="#9d9cb5"/>
      <path id="Caminho_753" data-name="Caminho 753" d="M928.42,622.06l-.44,3.622H864.49l-.44-3.622Z" transform="translate(-104.544 -75.265)" fill="#9d9cb5"/>
    </g>
  </g>
</svg>
